<?xml version="1.0" encoding="UTF-8"?>
<svg width="176px" height="23px" viewBox="0 0 176 23" version="1.1" xmlns="http://www.w3.org/2000/svg">
    <!-- Generator: Sketch 46.1 (44463) - http://www.bohemiancoding.com/sketch -->
    <title>logo_color</title>
    <desc>Created with Sketch.</desc>
    <defs></defs>
    <g id="Page-1" stroke="none" stroke-width="1" fill="none" fill-rule="evenodd">
        <g id="Artboard" transform="translate(-45.000000, -284.000000)">
            <g id="logo_color" transform="translate(45.000000, 284.000000)">
                <path d="M0,22.165 L0,0 L14.415,0 L14.415,4.65 L5.425,4.65 L5.425,8.091 L9.207,8.091 C11.3563441,8.091 13.0974933,8.75232672 14.4305,10.075 C15.7635067,11.3976733 16.43,13.092323 16.43,15.159 C16.43,17.225677 15.7635067,18.9099935 14.4305,20.212 C13.0974933,21.5140065 11.3563441,22.165 9.207,22.165 L0,22.165 Z M5.425,17.515 L8.184,17.515 C9.05200434,17.515 9.72366429,17.3031688 10.199,16.8795 C10.6743357,16.4558312 10.912,15.8823369 10.912,15.159 C10.912,14.435663 10.6691691,13.8518356 10.1835,13.4075 C9.6978309,12.9631644 9.00033788,12.741 8.091,12.741 L5.425,12.741 L5.425,17.515 Z M17.241,22.165 L17.241,6.2 L22.294,6.2 L22.294,13.237 C22.294,13.7536693 22.2733335,14.280664 22.232,14.818 L22.294,14.818 C22.4180006,14.5079985 22.707331,13.9810037 23.162,13.237 L27.595,6.2 L32.803,6.2 L32.803,22.165 L27.75,22.165 L27.75,15.19 C27.75,14.5286634 27.7706664,13.9913354 27.812,13.578 L27.75,13.578 C27.6879996,13.7433342 27.3986692,14.2703289 26.882,15.159 L22.449,22.165 L17.241,22.165 Z M33.3659999,20.181 L35.5049999,16.833 C36.0216692,17.3083357 36.6364963,17.7061651 37.3494999,18.0265 C38.0625035,18.3468349 38.7289968,18.507 39.3489999,18.507 C40.6303396,18.507 41.2709999,18.0420046 41.2709999,17.112 C41.2709999,16.6779978 41.1521678,16.3473345 40.9144999,16.12 C40.676832,15.8926655 40.2170033,15.779 39.5349999,15.779 L37.5819999,15.779 L37.5819999,12.245 L39.1939999,12.245 C40.2686719,12.245 40.8059999,11.8316708 40.8059999,11.005 C40.8059999,10.1576624 40.2480055,9.734 39.1319999,9.734 C37.9746608,9.734 36.7140067,10.136996 35.3499999,10.943 L33.7999999,7.626 C35.5360086,6.42732734 37.6853204,5.828 40.2479999,5.828 C41.942675,5.828 43.3479943,6.23099597 44.4639999,7.037 C45.5800055,7.84300403 46.1379999,8.91765995 46.1379999,10.261 C46.1379999,11.9350084 45.4766732,13.133663 44.1539999,13.857 L44.1539999,13.919 C45.8073415,14.6836705 46.6339999,15.8616587 46.6339999,17.453 C46.6339999,19.0856748 46.0243393,20.3411623 44.8049999,21.2195 C43.5856605,22.0978377 41.9943431,22.537 40.0309999,22.537 C38.8116605,22.537 37.6078392,22.335502 36.4194999,21.9325 C35.2311606,21.529498 34.2133375,20.9456705 33.3659999,20.181 Z M47.6619999,22.165 L47.6619999,6.2 L53.0249999,6.2 L53.0249999,11.842 L57.9539999,11.842 L57.9539999,6.2 L63.3169999,6.2 L63.3169999,22.165 L57.9539999,22.165 L57.9539999,16.337 L53.0249999,16.337 L53.0249999,22.165 L47.6619999,22.165 Z M64.3139998,14.167 C64.3139998,11.7696547 65.0683256,9.78050791 66.5769998,8.1995 C68.085674,6.61849209 70.1006539,5.828 72.6219998,5.828 C74.9160113,5.828 76.7191599,6.54615949 78.0314998,7.9825 C79.3438397,9.41884051 79.9999998,11.2736553 79.9999998,13.547 C79.9999998,13.9190019 79.9586669,14.4769963 79.8759998,15.221 L69.8009998,15.221 C69.9870007,16.1510046 70.426163,16.8588309 71.1184998,17.3445 C71.8108366,17.8301691 72.6116619,18.073 73.5209998,18.073 C74.8436731,18.073 76.3109917,17.535672 77.9229998,16.461 L79.9069998,20.212 C79.0596622,20.9353369 78.0211726,21.5036646 76.7914998,21.917 C75.561827,22.3303354 74.327006,22.537 73.0869998,22.537 C70.3796529,22.537 68.2406743,21.7103416 66.6699998,20.057 C65.0993253,18.4036584 64.3139998,16.4403447 64.3139998,14.167 Z M69.9249998,12.152 L74.6989998,12.152 C74.6989998,11.4699966 74.4975018,10.9016689 74.0944998,10.447 C73.6914978,9.99233106 73.1593364,9.765 72.4979998,9.765 C71.133993,9.765 70.2763349,10.5606587 69.9249998,12.152 Z M80.1909998,14.167 C80.1909998,11.8936553 80.9918251,9.93550821 82.5934998,8.2925 C84.1951744,6.64949178 86.3599861,5.828 89.0879998,5.828 C90.2866724,5.828 91.459494,6.02949799 92.6064998,6.4325 C93.7535055,6.83550202 94.698996,7.43999597 95.4429998,8.246 L93.1799998,11.842 C92.1053277,10.8086615 90.8550069,10.292 89.4289998,10.292 C88.2303271,10.292 87.2951698,10.6691629 86.6234998,11.4235 C85.9518297,12.1778371 85.6159998,13.0716615 85.6159998,14.105 C85.6159998,15.1590053 85.9673296,16.0838294 86.6699998,16.8795 C87.3726699,17.6751706 88.3543268,18.073 89.6149998,18.073 C91.0410069,18.073 92.4979923,17.4323397 93.9859998,16.151 L95.9389998,19.902 C95.1536625,20.708004 94.1461726,21.3486643 92.9164998,21.824 C91.6868269,22.2993357 90.410673,22.537 89.0879998,22.537 C86.3599861,22.537 84.1951744,21.7206748 82.5934998,20.088 C80.9918251,18.4553252 80.1909998,16.4816782 80.1909998,14.167 Z M95.8199997,22.165 L97.3389997,6.2 L103.539,6.2 L105.895,13.206 L106.515,15.066 L106.546,15.066 C106.794001,14.3633298 107.010999,13.743336 107.197,13.206 L109.553,6.2 L115.722,6.2 L117.241,22.165 L112.095,22.165 L111.723,14.818 L111.754,12.09 L111.692,12.09 C111.381998,12.9993379 111.092668,13.7846634 110.824,14.446 L108.716,20.026 L104.376,20.026 L102.268,14.446 L101.338,12.09 L101.276,12.09 L101.307,14.818 L100.935,22.165 L95.8199997,22.165 Z M117.556,14.167 C117.556,11.7696547 118.310325,9.78050791 119.819,8.1995 C121.327674,6.61849209 123.342654,5.828 125.864,5.828 C128.158011,5.828 129.96116,6.54615949 131.2735,7.9825 C132.58584,9.41884051 133.242,11.2736553 133.242,13.547 C133.242,13.9190019 133.200667,14.4769963 133.118,15.221 L123.043,15.221 C123.229001,16.1510046 123.668163,16.8588309 124.3605,17.3445 C125.052836,17.8301691 125.853662,18.073 126.763,18.073 C128.085673,18.073 129.552992,17.535672 131.165,16.461 L133.149,20.212 C132.301662,20.9353369 131.263172,21.5036646 130.0335,21.917 C128.803827,22.3303354 127.569006,22.537 126.329,22.537 C123.621653,22.537 121.482674,21.7103416 119.912,20.057 C118.341325,18.4036584 117.556,16.4403447 117.556,14.167 Z M123.167,12.152 L127.941,12.152 C127.941,11.4699966 127.739502,10.9016689 127.3365,10.447 C126.933498,9.99233106 126.401336,9.765 125.74,9.765 C124.375993,9.765 123.518335,10.5606587 123.167,12.152 Z M134.332,22.165 L134.332,6.2 L139.695,6.2 L139.695,11.842 L144.624,11.842 L144.624,6.2 L149.987,6.2 L149.987,22.165 L144.624,22.165 L144.624,16.337 L139.695,16.337 L139.695,22.165 L134.332,22.165 Z M150.984,14.167 C150.984,11.8936553 151.784825,9.93550821 153.3865,8.2925 C154.988174,6.64949178 157.152986,5.828 159.881,5.828 C161.079672,5.828 162.252494,6.02949799 163.3995,6.4325 C164.546505,6.83550202 165.491996,7.43999597 166.236,8.246 L163.973,11.842 C162.898328,10.8086615 161.648007,10.292 160.222,10.292 C159.023327,10.292 158.08817,10.6691629 157.4165,11.4235 C156.74483,12.1778371 156.409,13.0716615 156.409,14.105 C156.409,15.1590053 156.760329,16.0838294 157.463,16.8795 C158.16567,17.6751706 159.147327,18.073 160.408,18.073 C161.834007,18.073 163.290992,17.4323397 164.779,16.151 L166.732,19.902 C165.946662,20.708004 164.939172,21.3486643 163.7095,21.824 C162.479827,22.2993357 161.203673,22.537 159.881,22.537 C157.152986,22.537 154.988174,21.7206748 153.3865,20.088 C151.784825,18.4553252 150.984,16.4816782 150.984,14.167 Z" id="Бизнесменс" fill-opacity="0.85" fill="#000000"></path>
                <circle id="Oval" fill="#FFC925" cx="172.5" cy="18.5" r="3.5"></circle>
            </g>
        </g>
    </g>
</svg>